<?xml version="1.0" encoding="UTF-8" standalone="no"?>
<!-- Created with Inkscape (http://www.inkscape.org/) -->

<svg
   version="1.1"
   id="svg2"
   xml:space="preserve"
   width="87.73333mm"
   height="87.733116mm"
   viewBox="0 0 331.59053 331.58972"
   sodipodi:docname="lua-logo-nolabel.svg"
   inkscape:version="1.1.1 (3bf5ae0d25, 2021-09-20)"
   xmlns:inkscape="http://www.inkscape.org/namespaces/inkscape"
   xmlns:sodipodi="http://sodipodi.sourceforge.net/DTD/sodipodi-0.dtd"
   xmlns="http://www.w3.org/2000/svg"
   xmlns:svg="http://www.w3.org/2000/svg"><defs
     id="defs6" /><sodipodi:namedview
     id="namedview4"
     pagecolor="#ffffff"
     bordercolor="#666666"
     borderopacity="1.0"
     inkscape:pageshadow="2"
     inkscape:pageopacity="0.0"
     inkscape:pagecheckerboard="0"
     showgrid="false"
     lock-margins="true"
     inkscape:zoom="1.2808788"
     inkscape:cx="32.399631"
     inkscape:cy="231.4817"
     inkscape:window-width="1920"
     inkscape:window-height="991"
     inkscape:window-x="-9"
     inkscape:window-y="-9"
     inkscape:window-maximized="1"
     inkscape:current-layer="g8"
     fit-margin-top="10"
     fit-margin-left="10"
     fit-margin-right="10"
     fit-margin-bottom="10"
     units="mm"
     inkscape:document-units="mm" /><g
     id="g8"
     inkscape:groupmode="layer"
     inkscape:label="ink_ext_XXXXXX"
     transform="matrix(1.3333333,0,0,-1.3333333,37.795304,1160.462)"><g
       id="g2471"
       transform="matrix(0.50000035,0,0,0.50000035,-1.0633012e-5,420.99975)"><path
         d="m 338.89053,650.00232 c 0,81.12554 -65.7657,146.89124 -146.89124,146.89124 -81.12554,0 -146.891241,-65.7657 -146.891241,-146.89124 0,-81.12554 65.765701,-146.89124 146.891241,-146.89124 81.12554,0 146.89124,65.7657 146.89124,146.89124"
         style="fill:#000080;fill-opacity:1;fill-rule:nonzero;stroke:none;stroke-width:0.0405733"
         id="path12" /><path
         d="m 295.86699,710.84647 c 0,23.76136 -19.26218,43.02355 -43.02354,43.02355 -23.76096,0 -43.02314,-19.26219 -43.02314,-43.02355 0,-23.76095 19.26218,-43.02313 43.02314,-43.02313 23.76136,0 43.02354,19.26218 43.02354,43.02313"
         style="fill:#ffffff;fill-opacity:1;fill-rule:nonzero;stroke:none;stroke-width:0.0405733"
         id="path14" /><path
         d="m 380.94669,795.9765 c 0,23.76136 -19.26218,43.02355 -43.02354,43.02355 -23.76096,0 -43.02314,-19.26219 -43.02314,-43.02355 0,-23.76095 19.26218,-43.02313 43.02314,-43.02313 23.76136,0 43.02354,19.26218 43.02354,43.02313"
         style="fill:#000080;fill-opacity:1;fill-rule:nonzero;stroke:none;stroke-width:0.0405733"
         id="path14-6" /><g
         id="g16"
         transform="matrix(0.4057332,0,0,0.4057332,-15.736107,442.26692)"><text
           transform="matrix(1,0,0,-1,240.254,330.981)"
           style="font-variant:normal;font-weight:normal;font-size:325.835px;font-family:Helvetica;-inkscape-font-specification:Helvetica;writing-mode:lr-tb;fill:#ffffff;fill-opacity:1;fill-rule:nonzero;stroke:none"
           id="text20"><tspan
             x="0 181.16426 362.32852"
             y="0"
             sodipodi:role="line"
             id="tspan18">Lua</tspan></text></g><path
         d="m 361.21438,736.22184 c 13.60626,-26.70414 20.69929,-56.24923 20.69929,-86.21952 0,-104.8869 -85.02748,-189.9145 -189.91438,-189.9145 -104.8869,0 -189.9144994,85.0276 -189.9144994,189.9145 0,104.8869 85.0275994,189.91438 189.9144994,189.91438 36.7148,0 72.64288,-10.64238 103.43478,-30.63854"
         style="fill:none;stroke:#808080;stroke-width:4.40675;stroke-linecap:butt;stroke-linejoin:miter;stroke-miterlimit:10;stroke-dasharray:16.5732;stroke-dashoffset:0;stroke-opacity:1"
         id="path22" /></g></g></svg>
