<?xml version="1.0" encoding="UTF-8" standalone="no"?>
<!-- Created with Inkscape (http://www.inkscape.org/) -->

<svg
   width="34.667351mm"
   height="34.667347mm"
   viewBox="0 0 34.667351 34.667347"
   version="1.1"
   id="svg5"
   inkscape:version="1.1.1 (3bf5ae0d25, 2021-09-20)"
   sodipodi:docname="placeholder.svg"
   xmlns:inkscape="http://www.inkscape.org/namespaces/inkscape"
   xmlns:sodipodi="http://sodipodi.sourceforge.net/DTD/sodipodi-0.dtd"
   xmlns="http://www.w3.org/2000/svg"
   xmlns:svg="http://www.w3.org/2000/svg"
   xmlns:rdf="http://www.w3.org/1999/02/22-rdf-syntax-ns#"
   xmlns:cc="http://creativecommons.org/ns#"
   xmlns:dc="http://purl.org/dc/elements/1.1/">
  <title
     id="title11275">Placeholder Image</title>
  <sodipodi:namedview
     id="namedview7"
     pagecolor="#ffffff"
     bordercolor="#999999"
     borderopacity="1"
     inkscape:pageshadow="0"
     inkscape:pageopacity="0"
     inkscape:pagecheckerboard="true"
     inkscape:document-units="mm"
     showgrid="false"
     inkscape:snap-text-baseline="true"
     inkscape:zoom="5.1241863"
     inkscape:cx="87.526092"
     inkscape:cy="63.522281"
     inkscape:window-width="1920"
     inkscape:window-height="991"
     inkscape:window-x="-9"
     inkscape:window-y="-9"
     inkscape:window-maximized="1"
     inkscape:current-layer="g11253"
     fit-margin-top="2"
     fit-margin-left="2"
     fit-margin-right="2"
     fit-margin-bottom="2"
     lock-margins="true" />
  <defs
     id="defs2" />
  <g
     inkscape:label="Layer 1"
     inkscape:groupmode="layer"
     id="layer1"
     transform="translate(-55.367297,-40.909717)">
    <g
       id="g11253"
       style="stroke-width:0.926042;stroke-miterlimit:4;stroke-dasharray:none">
      <path
         id="path949"
         style="fill:none;stroke:#ffffff;stroke-width:0.92604205;stroke-linecap:butt;stroke-linejoin:miter;stroke-miterlimit:4;stroke-dasharray:2.77812614, 0.92604205;stroke-opacity:0.50102669;stroke-dashoffset:0"
         d="M 57.830318,43.372738 H 87.571625 V 73.114044 H 57.830318 Z"
         sodipodi:nodetypes="ccccc" />
      <g
         aria-label="Placeholder
Image"
         id="text2097"
         style="font-size:3.88056px;line-height:1.25;fill:#ffffff;stroke-width:0.926042;stroke-miterlimit:4;stroke-dasharray:none;fill-opacity:0.5"
         transform="translate(-0.0116405,2.7835285)">
        <path
           d="m 60.143508,56.856861 v -2.832809 h 0.942976 q 0.283281,0 0.492831,0.108656 0.213431,0.108656 0.329848,0.306564 0.116417,0.194028 0.116417,0.457906 0,0.259998 -0.120298,0.457906 -0.116416,0.197909 -0.325967,0.306565 -0.20955,0.108655 -0.492831,0.108655 h -0.457906 v 1.086557 z m 0.48507,-1.513418 h 0.457906 q 0.201789,0 0.322087,-0.124178 0.124178,-0.124178 0.124178,-0.322087 0,-0.201789 -0.124178,-0.322086 -0.120298,-0.124178 -0.322087,-0.124178 h -0.457906 z"
           style="font-weight:bold;font-family:'JetBrains Mono';-inkscape-font-specification:'JetBrains Mono Bold';text-align:center;text-anchor:middle;fill:#ffffff;stroke-width:0.926042;stroke-miterlimit:4;stroke-dasharray:none;fill-opacity:0.5"
           id="path10698" />
        <path
           d="m 63.682573,56.856861 q -0.20955,0 -0.368653,-0.08537 -0.155223,-0.08537 -0.244475,-0.240595 -0.08925,-0.159103 -0.08925,-0.364773 V 54.462556 H 62.27781 v -0.438504 h 1.187452 v 2.130428 q 0,0.120297 0.06597,0.194028 0.06985,0.06985 0.186267,0.06985 h 0.62477 v 0.438503 z"
           style="font-weight:bold;font-family:'JetBrains Mono';-inkscape-font-specification:'JetBrains Mono Bold';text-align:center;text-anchor:middle;fill:#ffffff;stroke-width:0.926042;stroke-miterlimit:4;stroke-dasharray:none;fill-opacity:0.5"
           id="path10700" />
        <path
           d="m 65.428819,56.895667 q -0.329848,0 -0.519995,-0.174625 -0.190147,-0.174626 -0.190147,-0.469548 0,-0.314326 0.21343,-0.48507 0.217312,-0.174625 0.609248,-0.174625 h 0.512234 v -0.178506 q 0,-0.155223 -0.100894,-0.240595 -0.100895,-0.08537 -0.283281,-0.08537 -0.166864,0 -0.27552,0.06985 -0.104775,0.06985 -0.116417,0.186267 h -0.461786 q 0.01164,-0.201789 0.120297,-0.349251 0.112536,-0.147461 0.302684,-0.228953 0.194028,-0.08149 0.446264,-0.08149 0.395817,0 0.62477,0.194028 0.228953,0.194028 0.228953,0.531636 v 1.447449 H 66.069111 V 56.495969 H 65.9915 l 0.08149,-0.116417 q 0,0.236714 -0.174625,0.376415 -0.174625,0.1397 -0.469548,0.1397 z m 0.159103,-0.360892 q 0.20567,0 0.333728,-0.104775 0.131939,-0.104776 0.131939,-0.267759 v -0.259998 h -0.500592 q -0.162984,0 -0.256117,0.08537 -0.09313,0.08149 -0.09313,0.221192 0,0.155222 0.100894,0.240594 0.104775,0.08537 0.283281,0.08537 z"
           style="font-weight:bold;font-family:'JetBrains Mono';-inkscape-font-specification:'JetBrains Mono Bold';text-align:center;text-anchor:middle;fill:#ffffff;stroke-width:0.926042;stroke-miterlimit:4;stroke-dasharray:none;fill-opacity:0.5"
           id="path10702" />
        <path
           d="m 68.005505,56.895667 q -0.271639,0 -0.477309,-0.100895 -0.201789,-0.104775 -0.314325,-0.291042 -0.112537,-0.190147 -0.112537,-0.446264 v -0.535517 q 0,-0.259998 0.112537,-0.446265 0.112536,-0.186267 0.314325,-0.287161 0.20567,-0.104775 0.477309,-0.104775 0.403578,0 0.644173,0.20955 0.240595,0.205669 0.252236,0.562681 h -0.473428 q -0.01164,-0.166864 -0.124178,-0.256117 -0.112536,-0.09313 -0.298803,-0.09313 -0.194028,0 -0.306564,0.108655 -0.112537,0.104775 -0.112537,0.302684 v 0.539398 q 0,0.197908 0.112537,0.306564 0.112536,0.108656 0.306564,0.108656 0.186267,0 0.298803,-0.08925 0.112536,-0.09313 0.124178,-0.259998 h 0.473428 q -0.01164,0.357012 -0.252236,0.566562 -0.240595,0.20567 -0.644173,0.20567 z"
           style="font-weight:bold;font-family:'JetBrains Mono';-inkscape-font-specification:'JetBrains Mono Bold';text-align:center;text-anchor:middle;fill:#ffffff;stroke-width:0.926042;stroke-miterlimit:4;stroke-dasharray:none;fill-opacity:0.5"
           id="path10704" />
        <path
           d="m 70.326074,56.895667 q -0.271639,0 -0.473428,-0.104775 -0.20179,-0.104776 -0.314326,-0.291042 -0.108655,-0.190148 -0.108655,-0.442384 v -0.535517 q 0,-0.252237 0.108655,-0.438504 0.112536,-0.190147 0.314326,-0.294922 0.201789,-0.104775 0.473428,-0.104775 0.267758,0 0.465667,0.104775 0.201789,0.104775 0.310445,0.294922 0.112536,0.186267 0.112536,0.438504 v 0.384175 h -1.31551 v 0.151342 q 0,0.225072 0.108656,0.341489 0.108656,0.112536 0.322086,0.112536 0.162984,0 0.263878,-0.05433 0.100895,-0.05821 0.128059,-0.166864 H 71.1992 q -0.05433,0.27552 -0.294923,0.442384 -0.236714,0.162984 -0.578203,0.162984 z m 0.4191,-1.261182 v -0.116417 q 0,-0.221192 -0.104775,-0.337609 -0.104775,-0.120297 -0.314325,-0.120297 -0.20955,0 -0.318206,0.120297 -0.108656,0.120298 -0.108656,0.34149 v 0.08149 l 0.880887,-0.0078 z"
           style="font-weight:bold;font-family:'JetBrains Mono';-inkscape-font-specification:'JetBrains Mono Bold';text-align:center;text-anchor:middle;fill:#ffffff;stroke-width:0.926042;stroke-miterlimit:4;stroke-dasharray:none;fill-opacity:0.5"
           id="path10706" />
        <path
           d="m 71.785158,56.856861 v -2.832809 h 0.48507 v 0.698501 l -0.01164,0.407459 h 0.131939 l -0.131939,0.112536 q 0,-0.259997 0.151342,-0.407459 0.155222,-0.151341 0.422981,-0.151341 0.314325,0 0.500592,0.20955 0.190147,0.20955 0.190147,0.562681 v 1.400882 h -0.48507 v -1.350435 q 0,-0.194028 -0.100894,-0.298803 -0.100895,-0.104775 -0.279401,-0.104775 -0.182386,0 -0.287161,0.108656 -0.100895,0.108655 -0.100895,0.310445 v 1.334912 z"
           style="font-weight:bold;font-family:'JetBrains Mono';-inkscape-font-specification:'JetBrains Mono Bold';text-align:center;text-anchor:middle;fill:#ffffff;stroke-width:0.926042;stroke-miterlimit:4;stroke-dasharray:none;fill-opacity:0.5"
           id="path10708" />
        <path
           d="m 74.978853,56.891786 q -0.271639,0 -0.473428,-0.100894 -0.201789,-0.104776 -0.310445,-0.291042 -0.108655,-0.190148 -0.108655,-0.446265 v -0.527756 q 0,-0.256117 0.108655,-0.442384 0.108656,-0.190147 0.310445,-0.291042 0.201789,-0.104775 0.473428,-0.104775 0.27552,0 0.473429,0.104775 0.201789,0.100895 0.310444,0.291042 0.108656,0.186267 0.108656,0.438504 v 0.531636 q 0,0.256117 -0.108656,0.446265 -0.108655,0.186266 -0.310444,0.291042 -0.197909,0.100894 -0.473429,0.100894 z m 0,-0.422981 q 0.194028,0 0.298803,-0.104775 0.108656,-0.108656 0.108656,-0.310445 v -0.527756 q 0,-0.20567 -0.108656,-0.310445 -0.104775,-0.104775 -0.298803,-0.104775 -0.190147,0 -0.298803,0.104775 -0.108655,0.104775 -0.108655,0.310445 v 0.527756 q 0,0.201789 0.108655,0.310445 0.108656,0.104775 0.298803,0.104775 z"
           style="font-weight:bold;font-family:'JetBrains Mono';-inkscape-font-specification:'JetBrains Mono Bold';text-align:center;text-anchor:middle;fill:#ffffff;stroke-width:0.926042;stroke-miterlimit:4;stroke-dasharray:none;fill-opacity:0.5"
           id="path10710" />
        <path
           d="m 77.652552,56.856861 q -0.20955,0 -0.368653,-0.08537 -0.155222,-0.08537 -0.244475,-0.240595 -0.08925,-0.159103 -0.08925,-0.364773 V 54.462556 H 76.24779 v -0.438504 h 1.187451 v 2.130428 q 0,0.120297 0.06597,0.194028 0.06985,0.06985 0.186267,0.06985 h 0.62477 v 0.438503 z"
           style="font-weight:bold;font-family:'JetBrains Mono';-inkscape-font-specification:'JetBrains Mono Bold';text-align:center;text-anchor:middle;fill:#ffffff;stroke-width:0.926042;stroke-miterlimit:4;stroke-dasharray:none;fill-opacity:0.5"
           id="path10712" />
        <path
           d="m 79.441485,56.895667 q -0.310444,0 -0.504472,-0.221192 -0.194028,-0.221192 -0.194028,-0.593726 v -0.578203 q 0,-0.376415 0.194028,-0.597607 0.194028,-0.221191 0.504472,-0.221191 0.287162,0 0.450145,0.182386 0.162984,0.178506 0.162984,0.48895 l -0.13582,-0.248355 h 0.112537 l -0.01552,-0.48507 v -0.597607 h 0.48507 v 2.832809 H 80.02745 v -0.384175 h -0.108656 l 0.13582,-0.248356 q 0,0.314325 -0.162984,0.492831 -0.162983,0.178506 -0.450145,0.178506 z m 0.182387,-0.419101 q 0.186267,0 0.287161,-0.112536 0.104775,-0.112536 0.104775,-0.318206 V 55.53359 q 0,-0.205669 -0.104775,-0.318206 -0.100894,-0.112536 -0.287161,-0.112536 -0.186267,0 -0.291042,0.108656 -0.104775,0.108655 -0.104775,0.310445 v 0.535517 q 0,0.201789 0.104775,0.310445 0.104775,0.108655 0.291042,0.108655 z"
           style="font-weight:bold;font-family:'JetBrains Mono';-inkscape-font-specification:'JetBrains Mono Bold';text-align:center;text-anchor:middle;fill:#ffffff;stroke-width:0.926042;stroke-miterlimit:4;stroke-dasharray:none;fill-opacity:0.5"
           id="path10714" />
        <path
           d="m 81.967725,56.895667 q -0.271639,0 -0.473428,-0.104775 -0.201789,-0.104776 -0.314326,-0.291042 -0.108655,-0.190148 -0.108655,-0.442384 v -0.535517 q 0,-0.252237 0.108655,-0.438504 0.112537,-0.190147 0.314326,-0.294922 0.201789,-0.104775 0.473428,-0.104775 0.267759,0 0.465667,0.104775 0.201789,0.104775 0.310445,0.294922 0.112536,0.186267 0.112536,0.438504 v 0.384175 h -1.31551 v 0.151342 q 0,0.225072 0.108656,0.341489 0.108656,0.112536 0.322087,0.112536 0.162983,0 0.263878,-0.05433 0.100894,-0.05821 0.128058,-0.166864 h 0.477309 q -0.05433,0.27552 -0.294923,0.442384 -0.236714,0.162984 -0.578203,0.162984 z m 0.4191,-1.261182 v -0.116417 q 0,-0.221192 -0.104775,-0.337609 -0.104775,-0.120297 -0.314325,-0.120297 -0.20955,0 -0.318206,0.120297 -0.108656,0.120298 -0.108656,0.34149 v 0.08149 l 0.880888,-0.0078 z"
           style="font-weight:bold;font-family:'JetBrains Mono';-inkscape-font-specification:'JetBrains Mono Bold';text-align:center;text-anchor:middle;fill:#ffffff;stroke-width:0.926042;stroke-miterlimit:4;stroke-dasharray:none;fill-opacity:0.5"
           id="path10716" />
        <path
           d="m 83.488898,56.856861 v -2.134308 h 0.473428 v 0.407459 h 0.131939 l -0.131939,0.112536 q 0,-0.259997 0.159103,-0.407459 0.159103,-0.151341 0.434623,-0.151341 0.329847,0 0.527756,0.217311 0.197908,0.217311 0.197908,0.585964 v 0.174626 h -0.508353 v -0.1397 q 0,-0.197909 -0.104775,-0.306565 -0.100895,-0.112536 -0.294923,-0.112536 -0.194028,0 -0.298803,0.116417 -0.100894,0.112536 -0.100894,0.329847 v 1.307749 z"
           style="font-weight:bold;font-family:'JetBrains Mono';-inkscape-font-specification:'JetBrains Mono Bold';text-align:center;text-anchor:middle;fill:#ffffff;stroke-width:0.926042;stroke-miterlimit:4;stroke-dasharray:none;fill-opacity:0.5"
           id="path10718" />
      </g>
    </g>
  </g>
  <metadata
     id="metadata11273">
    <rdf:RDF>
      <cc:Work
         rdf:about="">
        <dc:title>Placeholder Image</dc:title>
      </cc:Work>
    </rdf:RDF>
  </metadata>
</svg>
